<?xml version="1.0" standalone="no"?>
<svg xmlns:xlink="http://www.w3.org/1999/xlink" id="wave" style="transform:rotate(180deg); transition: 0.3s" viewBox="0 0 1440 490" version="1.1" xmlns="http://www.w3.org/2000/svg"><defs><linearGradient id="sw-gradient-0" x1="0" x2="0" y1="1" y2="0"><stop stop-color="rgba(155.177, 37.723, 0, 1)" offset="0%"/><stop stop-color="rgba(255, 179, 11, 1)" offset="100%"/></linearGradient></defs><path style="transform:translate(0, 0px); opacity:1" fill="url(#sw-gradient-0)" d="M0,196L16,236.8C32,278,64,359,96,326.7C128,294,160,147,192,81.7C224,16,256,33,288,49C320,65,352,82,384,130.7C416,180,448,261,480,245C512,229,544,114,576,106.2C608,98,640,196,672,204.2C704,212,736,131,768,89.8C800,49,832,49,864,106.2C896,163,928,278,960,302.2C992,327,1024,261,1056,236.8C1088,212,1120,229,1152,261.3C1184,294,1216,343,1248,302.2C1280,261,1312,131,1344,114.3C1376,98,1408,196,1440,261.3C1472,327,1504,359,1536,359.3C1568,359,1600,327,1632,326.7C1664,327,1696,359,1728,383.8C1760,408,1792,425,1824,408.3C1856,392,1888,343,1920,302.2C1952,261,1984,229,2016,253.2C2048,278,2080,359,2112,343C2144,327,2176,212,2208,212.3C2240,212,2272,327,2288,383.8L2304,441L2304,490L2288,490C2272,490,2240,490,2208,490C2176,490,2144,490,2112,490C2080,490,2048,490,2016,490C1984,490,1952,490,1920,490C1888,490,1856,490,1824,490C1792,490,1760,490,1728,490C1696,490,1664,490,1632,490C1600,490,1568,490,1536,490C1504,490,1472,490,1440,490C1408,490,1376,490,1344,490C1312,490,1280,490,1248,490C1216,490,1184,490,1152,490C1120,490,1088,490,1056,490C1024,490,992,490,960,490C928,490,896,490,864,490C832,490,800,490,768,490C736,490,704,490,672,490C640,490,608,490,576,490C544,490,512,490,480,490C448,490,416,490,384,490C352,490,320,490,288,490C256,490,224,490,192,490C160,490,128,490,96,490C64,490,32,490,16,490L0,490Z"/></svg>